<svg aria-hidden="true" style="position: absolute; overflow: hidden;" version="1.1" xmlns="http://www.w3.org/2000/svg" xmlns:xlink="http://www.w3.org/1999/xlink">
<defs>

<symbol id="icon-users-group" viewBox="0 0 35 32">
<path d="M28.4 26.16c0 3.251-1.81 5.040-5.093 5.040h-11.414c-3.283 0-5.093-1.79-5.093-5.040 0-3.661 2.080-7.936 7.944-7.936h5.711c5.866-0.002 7.945 4.275 7.945 7.936zM17.613 15.219c3.107 0 5.634-2.517 5.634-5.61 0-3.094-2.528-5.61-5.634-5.61s-5.632 2.517-5.632 5.61 2.525 5.61 5.632 5.61zM28.464 11.088h-2.576c-0.224 0-0.416 0.16-0.464 0.368-0.352 1.52-1.152 2.88-2.256 3.92-0.272 0.256-0.112 0.704 0.256 0.8 2.832 0.672 4.8 2.336 5.968 4.448 0.080 0.176 0.24 0.288 0.448 0.288h0.672c2.512 0 3.888-1.376 3.888-3.872 0-2.736-1.552-5.952-5.936-5.952zM26.416 0.8c-1.597 0-2.99 0.875-3.722 2.17-0.059 0.106-0.056 0.222-0.034 0.323 0.024 0.106 0.070 0.162 0.17 0.245 1.566 1.32 2.611 3.232 2.783 5.394 0.010 0.122 0.051 0.197 0.125 0.275s0.184 0.126 0.329 0.139c0.114 0.010 0.23 0.016 0.349 0.016 2.352 0 4.272-1.92 4.272-4.288 0-2.354-1.92-4.274-4.272-4.274zM0.8 17.040c0 2.496 1.376 3.872 3.888 3.872h0.672c0.208 0 0.368-0.112 0.448-0.288 1.168-2.112 3.136-3.776 5.968-4.448 0.368-0.096 0.528-0.544 0.256-0.8-1.104-1.040-1.904-2.4-2.256-3.92-0.048-0.208-0.24-0.368-0.464-0.368h-2.576c-4.384 0-5.936 3.216-5.936 5.952zM4.512 5.072c0 2.368 1.92 4.288 4.272 4.288 0.118 0 0.235-0.006 0.349-0.016 0.147-0.013 0.256-0.061 0.329-0.139s0.115-0.154 0.125-0.275c0.171-2.162 1.216-4.074 2.782-5.394 0.098-0.083 0.146-0.139 0.17-0.245 0.022-0.101 0.026-0.216-0.034-0.323-0.733-1.294-2.125-2.17-3.722-2.17-2.352 0.002-4.272 1.922-4.272 4.274z"></path>
</symbol>

<symbol id="icon-building-coins" viewBox="0 0 34 32">
<path d="M22.707 14.695c0.233-0.062 0.404-0.267 0.404-0.507v-7.413c0-1.244-0.853-2.329-2.062-2.596l-17.778-4.107c-1.671-0.391-3.271 0.889-3.271 2.595v25.778c0 0.142 0 0.284 0.018 0.409 0.124 1.956 1.173 3.004 3.129 3.129 0.124 0.018 0.267 0.018 0.409 0.018h3.911c0.295 0 0.533-0.238 0.533-0.533v-6.388c0-1.771 1.211-3.413 2.958-3.697 2.228-0.363 4.153 1.347 4.153 3.507v6.578c0 0.295 0.238 0.533 0.533 0.533h2.786c0.468 0 0.687-0.54 0.381-0.894-0.668-0.773-1.033-1.687-1.033-2.715v-8.782c0-2.336 1.877-4.115 4.93-4.915zM8.889 17.333h-1.778c-0.736 0-1.333-0.597-1.333-1.333s0.597-1.333 1.333-1.333h1.778c0.736 0 1.333 0.597 1.333 1.333s-0.597 1.333-1.333 1.333zM8.889 12h-1.778c-0.736 0-1.333-0.597-1.333-1.333s0.597-1.333 1.333-1.333h1.778c0.736 0 1.333 0.597 1.333 1.333s-0.597 1.333-1.333 1.333zM16 17.333h-1.778c-0.736 0-1.333-0.597-1.333-1.333s0.597-1.333 1.333-1.333h1.778c0.736 0 1.333 0.597 1.333 1.333s-0.597 1.333-1.333 1.333zM16 12h-1.778c-0.736 0-1.333-0.597-1.333-1.333s0.597-1.333 1.333-1.333h1.778c0.736 0 1.333 0.597 1.333 1.333s-0.597 1.333-1.333 1.333zM26.667 29.262c3.093 0 5.564-0.747 7.111-1.991v1.12c0 2.418-3.556 3.609-7.111 3.609s-7.111-1.191-7.111-3.609v-1.12c1.547 1.244 4.018 1.991 7.111 1.991zM26.667 24.996c3.093 0 5.564-0.747 7.111-1.991v0.871c0 2.436-3.556 3.609-7.111 3.609s-7.111-1.173-7.111-3.609v-0.871c1.564 1.244 4.036 1.991 7.111 1.991zM26.667 16c3.556 0 7.111 1.209 7.111 3.609 0 2.418-3.556 3.609-7.111 3.609s-7.111-1.191-7.111-3.609c0-2.4 3.556-3.609 7.111-3.609z"></path>
</symbol>

<symbol id="icon-home-dollar" viewBox="0 0 32 32">
<path d="M29.458 9.931l-10.602-8.891c-1.652-1.385-4.061-1.385-5.712 0l-10.603 8.891c-1.611 1.351-2.542 1.897-2.542 5.449v11.287c0 3.556 1.778 5.333 5.333 5.333h21.333c3.556 0 5.333-1.778 5.333-5.333v-11.287c0.002-3.554-0.928-4.098-2.541-5.449zM19.289 23.463c-0.542 0.553-1.22 0.921-1.956 1.083v0.343c0 0.736-0.597 1.333-1.333 1.333s-1.333-0.597-1.333-1.333v-0.346c-1.627-0.359-2.894-1.721-3.086-3.458-0.082-0.732 0.446-1.392 1.179-1.472 0.713-0.082 1.389 0.446 1.47 1.179 0.075 0.676 0.626 1.184 1.282 1.184h0.98c0.336 0 0.656-0.137 0.9-0.384 0.252-0.256 0.389-0.59 0.389-0.946 0-0.612-0.405-1.143-0.981-1.293l-2.252-0.567c-0.859-0.222-1.627-0.729-2.164-1.431-0.532-0.681-0.827-1.554-0.827-2.444 0-1.911 1.335-3.508 3.111-3.9v-0.343c0-0.736 0.597-1.333 1.333-1.333s1.333 0.597 1.333 1.333v0.347c1.627 0.359 2.894 1.721 3.086 3.458 0.082 0.732-0.446 1.392-1.179 1.472-0.711 0.071-1.388-0.446-1.47-1.179-0.075-0.676-0.626-1.184-1.282-1.184h-0.98c-0.709 0-1.289 0.595-1.289 1.33 0 0.302 0.096 0.592 0.27 0.816 0.185 0.242 0.429 0.404 0.709 0.477l2.252 0.567c1.762 0.453 2.99 2.046 2.99 3.876 0.002 1.061-0.407 2.062-1.154 2.818z"></path>
</symbol>

<symbol id="icon-store" viewBox="0 0 32 32">
<path d="M30.223 17.92v8.747c0 3.556-1.778 5.333-5.333 5.333h-4.747c-0.295 0-0.533-0.238-0.533-0.533v-5.472c0-1.772-1.2-3.426-2.948-3.721-2.22-0.373-4.163 1.349-4.163 3.504v5.689c0 0.295-0.238 0.533-0.533 0.533h-4.853c-3.556 0-5.333-1.778-5.333-5.333v-8.747c1.049 0.498 2.204 0.747 3.378 0.747 2.027 0 3.964-0.711 5.458-1.884 1.493 1.173 3.413 1.884 5.387 1.884 1.991 0 3.911-0.711 5.405-1.884 1.493 1.173 3.431 1.884 5.458 1.884 1.156 0 2.311-0.249 3.36-0.747zM8.001 0c-4.444 0-5.125 1.458-5.858 3.623l-1.849 5.463c-0.779 2.3 0.009 4.962 2.131 6.188 0.798 0.462 1.732 0.725 2.729 0.725 2.364 0 4.691-1.476 5.431-3.556 0.722 2.080 3.049 3.556 5.413 3.556s4.691-1.476 5.413-3.556c0.74 2.080 3.068 3.556 5.431 3.556 0.999 0 1.931-0.263 2.729-0.725 2.123-1.227 2.91-3.888 2.131-6.188l-1.849-5.463c-0.729-2.165-1.41-3.623-5.854-3.623h-16z"></path>
</symbol>

<symbol id="icon-home" viewBox="0 0 32 32">
<path d="M26.667 32h-5.689c-0.295 0-0.533-0.238-0.533-0.533v-7.467c0-2.455-1.989-4.444-4.444-4.444s-4.444 1.989-4.444 4.444v7.467c0 0.295-0.238 0.533-0.533 0.533h-5.689c-3.556 0-5.333-1.778-5.333-5.333v-11.287c0-3.552 0.93-4.098 2.542-5.449l10.603-8.891c1.652-1.385 4.060-1.385 5.712 0l10.602 8.891c1.611 1.351 2.542 1.897 2.542 5.449v11.287c-0.002 3.556-1.78 5.333-5.335 5.333z"></path>
</symbol>

<symbol id="icon-user-circle" viewBox="0 0 32 32">
<path d="M16 0c-8.837 0-16 7.163-16 16s7.163 16 16 16c8.837 0 16-7.163 16-16s-7.163-16-16-16zM16.013 8c2.651 0 4.8 2.149 4.8 4.8s-2.149 4.8-4.8 4.8c-2.651 0-4.8-2.149-4.8-4.8s2.149-4.8 4.8-4.8zM16 29.6c-3.536 0-6.768-1.36-9.184-3.584 0.704-2.208 2.528-4.304 6.448-4.304h5.472c3.904 0 5.728 2.112 6.448 4.304-2.416 2.224-5.648 3.584-9.184 3.584z"></path>
</symbol>

</defs>
</svg>
