<svg aria-hidden="true" style="position: absolute; overflow: hidden;" version="1.1" xmlns="http://www.w3.org/2000/svg" xmlns:xlink="http://www.w3.org/1999/xlink">
<defs>

<symbol id="icon-users-group" viewBox="0 0 35 32">
<path d="M28.4 26.16c0 3.251-1.81 5.040-5.093 5.040h-11.414c-3.283 0-5.093-1.79-5.093-5.040 0-3.661 2.080-7.936 7.944-7.936h5.711c5.866-0.002 7.945 4.275 7.945 7.936zM17.613 15.219c3.107 0 5.634-2.517 5.634-5.61 0-3.094-2.528-5.61-5.634-5.61s-5.632 2.517-5.632 5.61 2.525 5.61 5.632 5.61zM28.464 11.088h-2.576c-0.224 0-0.416 0.16-0.464 0.368-0.352 1.52-1.152 2.88-2.256 3.92-0.272 0.256-0.112 0.704 0.256 0.8 2.832 0.672 4.8 2.336 5.968 4.448 0.080 0.176 0.24 0.288 0.448 0.288h0.672c2.512 0 3.888-1.376 3.888-3.872 0-2.736-1.552-5.952-5.936-5.952zM26.416 0.8c-1.597 0-2.99 0.875-3.722 2.17-0.059 0.106-0.056 0.222-0.034 0.323 0.024 0.106 0.070 0.162 0.17 0.245 1.566 1.32 2.611 3.232 2.783 5.394 0.010 0.122 0.051 0.197 0.125 0.275s0.184 0.126 0.329 0.139c0.114 0.010 0.23 0.016 0.349 0.016 2.352 0 4.272-1.92 4.272-4.288 0-2.354-1.92-4.274-4.272-4.274zM0.8 17.040c0 2.496 1.376 3.872 3.888 3.872h0.672c0.208 0 0.368-0.112 0.448-0.288 1.168-2.112 3.136-3.776 5.968-4.448 0.368-0.096 0.528-0.544 0.256-0.8-1.104-1.040-1.904-2.4-2.256-3.92-0.048-0.208-0.24-0.368-0.464-0.368h-2.576c-4.384 0-5.936 3.216-5.936 5.952zM4.512 5.072c0 2.368 1.92 4.288 4.272 4.288 0.118 0 0.235-0.006 0.349-0.016 0.147-0.013 0.256-0.061 0.329-0.139s0.115-0.154 0.125-0.275c0.171-2.162 1.216-4.074 2.782-5.394 0.098-0.083 0.146-0.139 0.17-0.245 0.022-0.101 0.026-0.216-0.034-0.323-0.733-1.294-2.125-2.17-3.722-2.17-2.352 0.002-4.272 1.922-4.272 4.274z"></path>
</symbol>

<symbol id="icon-building-coins" viewBox="0 0 34 32">
<path d="M22.707 14.695c0.233-0.062 0.404-0.267 0.404-0.507v-7.413c0-1.244-0.853-2.329-2.062-2.596l-17.778-4.107c-1.671-0.391-3.271 0.889-3.271 2.595v25.778c0 0.142 0 0.284 0.018 0.409 0.124 1.956 1.173 3.004 3.129 3.129 0.124 0.018 0.267 0.018 0.409 0.018h3.911c0.295 0 0.533-0.238 0.533-0.533v-6.388c0-1.771 1.211-3.413 2.958-3.697 2.228-0.363 4.153 1.347 4.153 3.507v6.578c0 0.295 0.238 0.533 0.533 0.533h2.786c0.468 0 0.687-0.54 0.381-0.894-0.668-0.773-1.033-1.687-1.033-2.715v-8.782c0-2.336 1.877-4.115 4.93-4.915zM8.889 17.333h-1.778c-0.736 0-1.333-0.597-1.333-1.333s0.597-1.333 1.333-1.333h1.778c0.736 0 1.333 0.597 1.333 1.333s-0.597 1.333-1.333 1.333zM8.889 12h-1.778c-0.736 0-1.333-0.597-1.333-1.333s0.597-1.333 1.333-1.333h1.778c0.736 0 1.333 0.597 1.333 1.333s-0.597 1.333-1.333 1.333zM16 17.333h-1.778c-0.736 0-1.333-0.597-1.333-1.333s0.597-1.333 1.333-1.333h1.778c0.736 0 1.333 0.597 1.333 1.333s-0.597 1.333-1.333 1.333zM16 12h-1.778c-0.736 0-1.333-0.597-1.333-1.333s0.597-1.333 1.333-1.333h1.778c0.736 0 1.333 0.597 1.333 1.333s-0.597 1.333-1.333 1.333zM26.667 29.262c3.093 0 5.564-0.747 7.111-1.991v1.12c0 2.418-3.556 3.609-7.111 3.609s-7.111-1.191-7.111-3.609v-1.12c1.547 1.244 4.018 1.991 7.111 1.991zM26.667 24.996c3.093 0 5.564-0.747 7.111-1.991v0.871c0 2.436-3.556 3.609-7.111 3.609s-7.111-1.173-7.111-3.609v-0.871c1.564 1.244 4.036 1.991 7.111 1.991zM26.667 16c3.556 0 7.111 1.209 7.111 3.609 0 2.418-3.556 3.609-7.111 3.609s-7.111-1.191-7.111-3.609c0-2.4 3.556-3.609 7.111-3.609z"></path>
</symbol>

<symbol id="icon-home-dollar" viewBox="0 0 32 32">
<path d="M29.458 9.931l-10.602-8.891c-1.652-1.385-4.061-1.385-5.712 0l-10.603 8.891c-1.611 1.351-2.542 1.897-2.542 5.449v11.287c0 3.556 1.778 5.333 5.333 5.333h21.333c3.556 0 5.333-1.778 5.333-5.333v-11.287c0.002-3.554-0.928-4.098-2.541-5.449zM19.289 23.463c-0.542 0.553-1.22 0.921-1.956 1.083v0.343c0 0.736-0.597 1.333-1.333 1.333s-1.333-0.597-1.333-1.333v-0.346c-1.627-0.359-2.894-1.721-3.086-3.458-0.082-0.732 0.446-1.392 1.179-1.472 0.713-0.082 1.389 0.446 1.47 1.179 0.075 0.676 0.626 1.184 1.282 1.184h0.98c0.336 0 0.656-0.137 0.9-0.384 0.252-0.256 0.389-0.59 0.389-0.946 0-0.612-0.405-1.143-0.981-1.293l-2.252-0.567c-0.859-0.222-1.627-0.729-2.164-1.431-0.532-0.681-0.827-1.554-0.827-2.444 0-1.911 1.335-3.508 3.111-3.9v-0.343c0-0.736 0.597-1.333 1.333-1.333s1.333 0.597 1.333 1.333v0.347c1.627 0.359 2.894 1.721 3.086 3.458 0.082 0.732-0.446 1.392-1.179 1.472-0.711 0.071-1.388-0.446-1.47-1.179-0.075-0.676-0.626-1.184-1.282-1.184h-0.98c-0.709 0-1.289 0.595-1.289 1.33 0 0.302 0.096 0.592 0.27 0.816 0.185 0.242 0.429 0.404 0.709 0.477l2.252 0.567c1.762 0.453 2.99 2.046 2.99 3.876 0.002 1.061-0.407 2.062-1.154 2.818z"></path>
</symbol>

<symbol id="icon-store" viewBox="0 0 32 32">
<path d="M30.223 17.92v8.747c0 3.556-1.778 5.333-5.333 5.333h-4.747c-0.295 0-0.533-0.238-0.533-0.533v-5.472c0-1.772-1.2-3.426-2.948-3.721-2.22-0.373-4.163 1.349-4.163 3.504v5.689c0 0.295-0.238 0.533-0.533 0.533h-4.853c-3.556 0-5.333-1.778-5.333-5.333v-8.747c1.049 0.498 2.204 0.747 3.378 0.747 2.027 0 3.964-0.711 5.458-1.884 1.493 1.173 3.413 1.884 5.387 1.884 1.991 0 3.911-0.711 5.405-1.884 1.493 1.173 3.431 1.884 5.458 1.884 1.156 0 2.311-0.249 3.36-0.747zM8.001 0c-4.444 0-5.125 1.458-5.858 3.623l-1.849 5.463c-0.779 2.3 0.009 4.962 2.131 6.188 0.798 0.462 1.732 0.725 2.729 0.725 2.364 0 4.691-1.476 5.431-3.556 0.722 2.080 3.049 3.556 5.413 3.556s4.691-1.476 5.413-3.556c0.74 2.080 3.068 3.556 5.431 3.556 0.999 0 1.931-0.263 2.729-0.725 2.123-1.227 2.91-3.888 2.131-6.188l-1.849-5.463c-0.729-2.165-1.41-3.623-5.854-3.623h-16z"></path>
</symbol>

<symbol id="icon-home" viewBox="0 0 32 32">
<path d="M26.667 32h-5.689c-0.295 0-0.533-0.238-0.533-0.533v-7.467c0-2.455-1.989-4.444-4.444-4.444s-4.444 1.989-4.444 4.444v7.467c0 0.295-0.238 0.533-0.533 0.533h-5.689c-3.556 0-5.333-1.778-5.333-5.333v-11.287c0-3.552 0.93-4.098 2.542-5.449l10.603-8.891c1.652-1.385 4.060-1.385 5.712 0l10.602 8.891c1.611 1.351 2.542 1.897 2.542 5.449v11.287c-0.002 3.556-1.78 5.333-5.335 5.333z"></path>
</symbol>

<symbol id="icon-user-circle" viewBox="0 0 32 32">
<path d="M16 0c-8.837 0-16 7.163-16 16s7.163 16 16 16c8.837 0 16-7.163 16-16s-7.163-16-16-16zM16.013 8c2.651 0 4.8 2.149 4.8 4.8s-2.149 4.8-4.8 4.8c-2.651 0-4.8-2.149-4.8-4.8s2.149-4.8 4.8-4.8zM16 29.6c-3.536 0-6.768-1.36-9.184-3.584 0.704-2.208 2.528-4.304 6.448-4.304h5.472c3.904 0 5.728 2.112 6.448 4.304-2.416 2.224-5.648 3.584-9.184 3.584z"></path>
</symbol>

<symbol id="icon-search" viewBox="0 0 32 32">
<path d="M31.248 29.552l-6.146-6.146c2.054-2.437 3.298-5.578 3.298-9.006 0-7.72-6.28-14-14-14s-14 6.28-14 14c0 7.72 6.28 14 14 14 3.429 0 6.57-1.243 9.006-3.298l6.146 6.146c0.234 0.234 0.541 0.352 0.848 0.352s0.614-0.117 0.848-0.352c0.469-0.467 0.469-1.227 0-1.696zM2.8 14.4c0-6.397 5.203-11.6 11.6-11.6s11.6 5.203 11.6 11.6c0 6.397-5.203 11.6-11.6 11.6s-11.6-5.203-11.6-11.6z"></path>
</symbol>

<symbol id="icon-area" viewBox="0 0 32 32">
<path d="M31.2 5.6v-1.6c0-2.034-1.166-3.2-3.2-3.2h-1.6c-1.893 0-3.021 1.021-3.17 2.8h-14.459c-0.149-1.779-1.277-2.8-3.17-2.8h-1.6c-2.034 0-3.2 1.166-3.2 3.2v1.6c0 1.893 1.021 3.021 2.8 3.17v14.459c-1.779 0.149-2.8 1.277-2.8 3.17v1.6c0 2.034 1.166 3.2 3.2 3.2h1.6c1.893 0 3.021-1.021 3.17-2.8h14.459c0.149 1.779 1.277 2.8 3.17 2.8h1.6c2.034 0 3.2-1.166 3.2-3.2v-1.6c0-1.893-1.021-3.021-2.8-3.17v-14.459c1.779-0.149 2.8-1.277 2.8-3.17zM23.23 26h-14.459c-0.138-1.646-1.123-2.632-2.77-2.77v-14.459c1.646-0.138 2.632-1.123 2.77-2.77h14.459c0.138 1.646 1.123 2.632 2.77 2.77v14.459c-1.646 0.138-2.632 1.123-2.77 2.77z"></path>
</symbol>

<symbol id="icon-bath" viewBox="0 0 32 32">
<path d="M21.448 4.856c0.303-2.694 2.497-4.86 5.26-4.86 2.979 0 5.296 2.517 5.296 5.499v12.896h-0.005v4.809c0 3.842-3.010 6.982-6.8 7.189v0.407c0 0.663-0.537 1.2-1.2 1.2s-1.2-0.537-1.2-1.2v-0.396h-13.6v0.396c0 0.663-0.537 1.2-1.2 1.2s-1.2-0.537-1.2-1.2v-0.407c-3.79-0.208-6.8-3.347-6.8-7.189v-5.6c0-0.884 0.716-1.6 1.6-1.6h28.005v-10.505c0-1.767-1.351-3.099-2.896-3.099-1.362 0-2.572 1.034-2.841 2.488 0.331 0.112 0.621 0.33 0.82 0.628l1.067 1.6c0.709 1.063-0.053 2.488-1.331 2.488h-3.621c-1.278 0-2.040-1.424-1.331-2.488l1.067-1.6c0.217-0.325 0.542-0.556 0.911-0.656zM2.4 23.2v-4.8h2.4v5.281c0 0.884 0.716 1.6 1.6 1.6h5.255c0.884 0 1.6-0.716 1.6-1.6v-5.281h16.345v4.8c0 2.651-2.149 4.8-4.8 4.8h-17.6c-2.651 0-4.8-2.149-4.8-4.8zM10.855 18.4h-3.655v4.481h3.655v-4.481z"></path>
</symbol>

<symbol id="icon-bed" viewBox="0 0 46 32">
<path d="M45.143 13.714v16c0 0.937-0.777 1.714-1.714 1.714s-1.714-0.777-1.714-1.714v-5.143h-37.714v5.143c0 0.946-0.768 1.714-1.714 1.714s-1.714-0.768-1.714-1.714v-27.429c0-0.946 0.768-1.714 1.714-1.714s1.714 0.768 1.714 1.714v18.857h17.143v-14.286c0-0.937 0.777-1.714 1.714-1.714h13.714c5.531 0 8.571 3.040 8.571 8.571zM12.571 17.143c3.157 0 5.714-2.558 5.714-5.714s-2.558-5.714-5.714-5.714c-3.157 0-5.714 2.558-5.714 5.714s2.558 5.714 5.714 5.714z"></path>
</symbol>

<symbol id="icon-heart" viewBox="0 0 34 32">
<path d="M16.842 31.579c-0.179 0-0.357-0.037-0.524-0.113-0.551-0.251-13.512-6.262-15.591-16.967-0.803-4.141 0.003-8.182 2.157-10.806 1.743-2.125 4.249-3.256 7.249-3.271 0.015 0 0.030 0 0.044 0 3.422 0 5.509 1.949 6.663 3.608 1.159-1.666 3.262-3.623 6.706-3.608 3.001 0.015 5.509 1.145 7.254 3.271 2.151 2.622 2.956 6.663 2.151 10.808-2.075 10.705-15.038 16.718-15.589 16.967-0.163 0.074-0.342 0.111-0.52 0.111zM10.176 2.947c-0.010 0-0.018 0-0.029 0-2.253 0.010-4.039 0.8-5.309 2.348-1.683 2.050-2.291 5.31-1.63 8.723 1.608 8.293 11.264 13.683 13.634 14.892 2.37-1.209 12.025-6.599 13.632-14.892 0.664-3.414 0.056-6.675-1.624-8.723-1.27-1.546-3.055-2.334-5.314-2.346-0.010 0-0.020 0-0.028 0-3.995 0-5.411 4.003-5.469 4.173-0.175 0.51-0.657 0.857-1.196 0.857-0.003 0-0.005 0-0.007 0-0.541-0.002-1.022-0.347-1.194-0.861-0.056-0.168-1.474-4.172-5.467-4.172z"></path>
</symbol>

<symbol id="icon-youtube" viewBox="0 0 32 32">
<path d="M31.681 9.6c0 0-0.312-2.206-1.275-3.175-1.219-1.275-2.581-1.281-3.206-1.356-4.475-0.325-11.194-0.325-11.194-0.325h-0.013c0 0-6.719 0-11.194 0.325-0.625 0.075-1.987 0.081-3.206 1.356-0.963 0.969-1.269 3.175-1.269 3.175s-0.325 2.594-0.325 5.181v2.425c0 2.588 0.319 5.181 0.319 5.181s0.312 2.206 1.269 3.175c1.219 1.275 2.819 1.231 3.531 1.369 2.563 0.244 10.881 0.319 10.881 0.319s6.725-0.012 11.2-0.331c0.625-0.075 1.987-0.081 3.206-1.356 0.963-0.969 1.275-3.175 1.275-3.175s0.319-2.588 0.319-5.181v-2.425c0-2.588-0.319-5.181-0.319-5.181zM12.694 20.15v-8.994l8.644 4.512-8.644 4.481z"></path>
</symbol>

<symbol id="icon-instagram" viewBox="0 0 32 32">
<path d="M16 2.881c4.275 0 4.781 0.019 6.463 0.094 1.563 0.069 2.406 0.331 2.969 0.55 0.744 0.288 1.281 0.638 1.838 1.194 0.562 0.563 0.906 1.094 1.194 1.838 0.219 0.563 0.481 1.412 0.55 2.969 0.075 1.688 0.094 2.194 0.094 6.462 0 4.275-0.019 4.781-0.094 6.463-0.069 1.563-0.331 2.406-0.55 2.969-0.287 0.744-0.638 1.281-1.194 1.837-0.563 0.563-1.094 0.906-1.838 1.194-0.562 0.219-1.412 0.481-2.969 0.55-1.687 0.075-2.194 0.094-6.463 0.094-4.275 0-4.781-0.019-6.463-0.094-1.563-0.069-2.406-0.331-2.969-0.55-0.744-0.287-1.281-0.637-1.838-1.194-0.563-0.563-0.906-1.094-1.194-1.837-0.219-0.563-0.481-1.413-0.55-2.969-0.075-1.687-0.094-2.194-0.094-6.463 0-4.275 0.019-4.781 0.094-6.462 0.069-1.563 0.331-2.406 0.55-2.969 0.288-0.744 0.638-1.281 1.194-1.838 0.563-0.563 1.094-0.906 1.838-1.194 0.563-0.219 1.412-0.481 2.969-0.55 1.681-0.075 2.188-0.094 6.463-0.094zM16 0c-4.344 0-4.887 0.019-6.594 0.094-1.7 0.075-2.869 0.35-3.881 0.744-1.056 0.412-1.95 0.956-2.837 1.85-0.894 0.888-1.438 1.781-1.85 2.831-0.394 1.019-0.669 2.181-0.744 3.881-0.075 1.713-0.094 2.256-0.094 6.6s0.019 4.887 0.094 6.594c0.075 1.7 0.35 2.869 0.744 3.881 0.413 1.056 0.956 1.95 1.85 2.837 0.887 0.887 1.781 1.437 2.831 1.844 1.019 0.394 2.181 0.669 3.881 0.744 1.706 0.075 2.25 0.094 6.594 0.094s4.887-0.019 6.594-0.094c1.7-0.075 2.869-0.35 3.881-0.744 1.050-0.406 1.944-0.956 2.831-1.844s1.437-1.781 1.844-2.831c0.394-1.019 0.669-2.181 0.744-3.881 0.075-1.706 0.094-2.25 0.094-6.594s-0.019-4.888-0.094-6.594c-0.075-1.7-0.35-2.869-0.744-3.881-0.394-1.063-0.937-1.956-1.831-2.844-0.887-0.887-1.781-1.438-2.831-1.844-1.019-0.394-2.181-0.669-3.881-0.744-1.713-0.081-2.256-0.1-6.6-0.1z"></path>
<path d="M16 7.781c-4.537 0-8.219 3.681-8.219 8.219s3.681 8.219 8.219 8.219c4.537 0 8.219-3.681 8.219-8.219s-3.681-8.219-8.219-8.219zM16 21.331c-2.944 0-5.331-2.387-5.331-5.331s2.387-5.331 5.331-5.331c2.944 0 5.331 2.387 5.331 5.331s-2.387 5.331-5.331 5.331z"></path>
<path d="M26.463 7.456c0 1.063-0.863 1.919-1.919 1.919-1.063 0-1.919-0.863-1.919-1.919 0-1.063 0.862-1.919 1.919-1.919s1.919 0.862 1.919 1.919z"></path>
</symbol>

<symbol id="icon-facebook" viewBox="0 0 32 32">
<path d="M32 16c0-8.837-7.163-16-16-16s-16 7.163-16 16c0 7.986 5.851 14.605 13.5 15.806v-11.181h-4.063v-4.625h4.063v-3.525c0-4.010 2.389-6.225 6.043-6.225 1.75 0 3.582 0.313 3.582 0.313v3.938h-2.018c-1.987 0-2.607 1.233-2.607 2.5v3h4.437l-0.709 4.625h-3.728v11.181c7.649-1.2 13.5-7.82 13.5-15.806z"></path>
</symbol>

<symbol id="icon-twitter" viewBox="0 0 32 32">
<path d="M10.067 29c12.072 0 18.678-10.004 18.678-18.678 0-0.281-0.006-0.569-0.019-0.85 1.285-0.929 2.394-2.080 3.274-3.399-1.197 0.532-2.467 0.88-3.768 1.031 1.37-0.821 2.395-2.111 2.887-3.631-1.289 0.764-2.698 1.302-4.168 1.593-0.99-1.052-2.299-1.749-3.725-1.982s-2.889 0.009-4.163 0.691c-1.274 0.681-2.288 1.763-2.885 3.079s-0.745 2.791-0.419 4.199c-2.609-0.131-5.162-0.809-7.493-1.99s-4.387-2.838-6.036-4.865c-0.838 1.445-1.095 3.155-0.717 4.782s1.36 3.050 2.748 3.979c-1.042-0.033-2.062-0.314-2.974-0.819v0.081c-0.001 1.516 0.523 2.986 1.484 4.16s2.297 1.978 3.784 2.278c-0.966 0.264-1.979 0.303-2.962 0.113 0.419 1.304 1.236 2.445 2.335 3.263s2.426 1.272 3.795 1.3c-2.325 1.827-5.198 2.817-8.154 2.813-0.524-0.001-1.048-0.033-1.569-0.096 3.004 1.927 6.498 2.951 10.067 2.949z"></path>
</symbol>

</defs>
</svg>
